<svg xmlns="http://www.w3.org/2000/svg" viewBox="0 0 100 120" fill="none">
  <defs>
    <linearGradient id="yellowFlame" x1="40" y1="60" x2="65" y2="10" gradientUnits="userSpaceOnUse">
      <stop offset="0%" stop-color="#FFA800" />
      <stop offset="50%" stop-color="#FFC800" />
      <stop offset="100%" stop-color="#FFE600" />
    </linearGradient>
    <linearGradient id="orangeFlame" x1="25" y1="75" x2="70" y2="25" gradientUnits="userSpaceOnUse">
      <stop offset="0%" stop-color="#FF2A00" />
      <stop offset="45%" stop-color="#FF6B00" />
      <stop offset="100%" stop-color="#FFB800" />
    </linearGradient>
    <linearGradient id="redFlame" x1="15" y1="80" x2="60" y2="15" gradientUnits="userSpaceOnUse">
      <stop offset="0%" stop-color="#9E0000" />
      <stop offset="50%" stop-color="#E52100" />
      <stop offset="100%" stop-color="#FF5500" />
    </linearGradient>
    <linearGradient id="chromeBase" x1="25" y1="55" x2="80" y2="120" gradientUnits="userSpaceOnUse">
      <stop offset="0%" stop-color="#FFFFFF" />
      <stop offset="15%" stop-color="#E2E8F0" />
      <stop offset="35%" stop-color="#94A3B8" />
      <stop offset="50%" stop-color="#475569" />
      <stop offset="68%" stop-color="#0F172A" />
      <stop offset="85%" stop-color="#475569" />
      <stop offset="100%" stop-color="#E2E8F0" />
    </linearGradient>
    <linearGradient id="bevelGrad" x1="30" y1="60" x2="60" y2="115" gradientUnits="userSpaceOnUse">
      <stop offset="0%" stop-color="#FFFFFF" stop-opacity="0.82" />
      <stop offset="40%" stop-color="#94A3B8" stop-opacity="0.3" />
      <stop offset="80%" stop-color="#0F172A" stop-opacity="0.95" />
      <stop offset="100%" stop-color="#000000" stop-opacity="1" />
    </linearGradient>
    <filter id="glowFilt" x="-20%" y="-20%" width="140%" height="140%">
      <feGaussianBlur stdDeviation="3.5" result="blur" />
      <feComposite in="SourceGraphic" in2="blur" operator="over" />
    </filter>
  </defs>

  <g filter="url(#glowFilt)">
    <path d="M 22 84 C 9 60 16 33 34 20 C 48 10 58 6 58 6 C 58 6 50 15 46 24 C 40 36 40 49 49 59 C 58 69 52 81 43 87 C 35 92 28 89 22 84 Z" fill="url(#redFlame)" opacity="0.91" />
    <path d="M 29 74 C 20 52 25 33 41 22 C 54 12 68 13 68 13 C 68 13 58 20 54 29 C 49 41 52 52 61 60 C 68 67 63 78 54 83 C 45 87 36 82 29 74 Z" fill="url(#orangeFlame)" />
    <path d="M 37 66 C 31 49 36 34 49 26 C 60 19 72 22 72 22 C 72 22 63 26 60 34 C 57 44 61 53 69 59 C 76 65 72 74 63 78 C 55 82 45 76 37 66 Z" fill="url(#yellowFlame)" />
  </g>

  <path d="M 35 60 C 42 61 58 58 66 54 C 74 50 82 45 82 45 C 82 45 74 52 66 58 C 58 64 54 68 53 73 C 51 80 50 88 47 98 C 45 106 43 115 43 115 C 43 115 48 103 50 93 C 53 82 60 72 73 66 C 81 62 84 62 84 62 C 84 62 76 66 69 73 C 61 82 59 93 57 105 C 55 117 44 122 41 122 C 38 122 34 117 33 111 C 31 100 32 88 33 77 C 34 68 31 63 28 60 C 26 58 31 59 35 60 Z" fill="url(#chromeBase)" stroke="#000" stroke-width="0.3" />
  <path d="M 33 77 C 34 68 31 63 28 60 C 31 59 35 60 42 61 C 58 58 66 54 74 50 C 70 54 62 58 54 62 C 48 65 44 70 43 75 C 41 85 41 95 39 105 C 38 111 36 117 35 120 C 37 114 38 108 38 100 C 39 88 37 80 33 77 Z" fill="url(#bevelGrad)" opacity="0.85" />
  <circle cx="53" cy="73" r="1.5" fill="#FFF" opacity="0.95" />
</svg>
